<svg width="470" height="80" viewBox="0 0 470 80" fill="none" xmlns="http://www.w3.org/2000/svg">
<g clip-path="url(#clip0_5998_452)">
<path d="M52.8362 0L26.1631 26.6635H52.8362V80L79.4996 53.3943V0H52.8362Z" fill="#EA5614"/>
<path d="M26.1635 80L52.8365 53.3365H26.1635V0L-0.5 26.6057V80H26.1635Z" fill="white"/>
<path d="M105.5 66.6889H119.471V25.2944H140.745V66.6889H154.717V13.3093H105.5V66.6889ZM241.165 33.3134H229.237V25.3233H255.808V13.3093H215.266V66.6889H241.865C252.516 66.6889 260.5 61.3268 260.5 49.9963C260.5 38.6658 252.478 33.3134 241.165 33.3134ZM239.831 55.3487H229.275V44.6824H239.831C243.132 44.6824 246.461 45.982 246.461 49.9963C246.461 54.0106 243.132 55.3487 239.831 55.3487ZM188.897 55.3487C179.579 55.3487 174.33 48.4945 174.33 40.0231C174.33 33.2171 178.169 24.6783 188.637 24.6783C190.985 24.6992 193.299 25.2368 195.416 26.2531C197.533 27.2694 199.402 28.7397 200.891 30.5602L209.383 22.0406C206.767 18.8922 203.492 16.3605 199.79 14.6252C196.089 12.8899 192.052 11.9936 187.966 12C172.545 12 160.368 23.4557 160.368 40.0231C160.331 45.9058 162.156 51.6486 165.578 56.4253C169.001 61.2021 173.845 64.7666 179.415 66.606C184.985 68.4454 190.993 68.4649 196.575 66.6618C202.156 64.8586 207.024 61.3257 210.477 56.5713L201.928 47.994C200.575 50.2431 198.663 52.1005 196.378 53.3832C194.093 54.666 191.515 55.3301 188.897 55.3102V55.3487Z" fill="white"/>
<path d="M289.5 80V0H286.5V80H289.5Z" fill="white"/>
<path d="M321.1 28.5H339.65V53.5H335.3V32.7H325.45V42.9C325.45 46.9 324.65 49.75 323.05 51.45C321.45 53.1167 319.1 53.8 316 53.5V49.4C317.733 49.6333 319.017 49.25 319.85 48.25C320.683 47.2167 321.1 45.4 321.1 42.8V28.5ZM350.541 46.05L364.391 28.5H367.891V53.5H363.591V35.95L349.741 53.5H346.241V28.5H350.541V46.05ZM388.013 40.7C390.78 41.8667 392.163 43.85 392.163 46.65C392.163 48.8167 391.313 50.6167 389.613 52.05C387.913 53.45 385.563 54.15 382.563 54.15C377.563 54.15 374.213 52.15 372.513 48.15L376.163 46C377.096 48.7333 379.246 50.1 382.613 50.1C384.246 50.1 385.53 49.75 386.463 49.05C387.396 48.35 387.863 47.4167 387.863 46.25C387.863 45.25 387.48 44.4333 386.713 43.8C385.98 43.1667 384.98 42.85 383.713 42.85H380.063V38.9H382.763C384.03 38.9 385.013 38.6 385.713 38C386.413 37.3667 386.763 36.5167 386.763 35.45C386.763 34.35 386.346 33.4833 385.513 32.85C384.68 32.1833 383.563 31.85 382.163 31.85C379.363 31.85 377.463 33.0333 376.463 35.4L372.913 33.35C374.68 29.6833 377.763 27.85 382.163 27.85C384.83 27.85 386.963 28.55 388.563 29.95C390.196 31.3167 391.013 33.0333 391.013 35.1C391.013 37.6333 390.013 39.5 388.013 40.7ZM401.176 46.05L415.026 28.5H418.526V53.5H414.226V35.95L400.376 53.5H396.876V28.5H401.176V46.05ZM442.448 38.9V28.5H446.798V53.5H442.448V43.05H429.498V53.5H425.148V28.5H429.498V38.9H442.448ZM453.419 28.5H469.819V32.7H457.769V53.5H453.419V28.5Z" fill="white"/>
</g>
<defs>
<clipPath id="clip0_5998_452">
<rect width="470" height="80" fill="white"/>
</clipPath>
</defs>
</svg>
