<svg width="166" height="36" viewBox="0 0 166 36" xmlns="http://www.w3.org/2000/svg">
	<rect width="166" height="35" transform="translate(0 0.5)" fill="none" />
	<path d="M0 18.5C0 26.5101 6.60552 33 14.7417 33C14.9423 33 15.1355 33 15.3361 32.9854V27.4894H14.7417C9.68909 27.4894 5.60244 23.4625 5.60244 18.5C5.60244 13.5375 9.69652 9.51058 14.7417 9.51058H15.3361V4.01462C15.1355 4.01462 14.9423 4 14.7417 4C6.60552 4 0 10.4899 0 18.5Z" fill="#FF4B5F" />
	<path d="M17.6907 4.29199V11.827H14.7409C10.996 11.827 7.95703 14.8162 7.95703 18.4997C7.95703 22.1831 10.996 25.1723 14.7409 25.1723H17.6907V32.7146C24.4225 31.3699 29.4826 25.5231 29.4826 18.507C29.4826 11.4908 24.4225 5.63675 17.6907 4.29199Z" fill="#003790" />
	<path d="M96.2773 32.7963V21.1123H104.14V22.97H98.3143V32.7963H96.2773Z" fill="#FF4B5F" />
	<path d="M83.8203 32.7963V21.1123H85.8736V25.9684H91.4467V21.1123H93.5V32.7963H91.4467V27.875H85.8736V32.7963H83.8203Z" fill="#FF4B5F" />
	<path d="M71.1719 32.7963V21.1123H73.1925V29.6431L79.0997 21.1123H81.0226V32.7963H79.002V24.29L73.1111 32.7963H71.1719Z" fill="#FF4B5F" />
	<path d="M59.6445 31.0774L60.7608 29.6596C61.8417 30.6917 63.1372 31.2077 64.6473 31.2077C65.2883 31.2077 65.8287 31.0502 66.2687 30.7351C66.7141 30.4147 66.9369 29.9883 66.9369 29.4559C66.9369 28.8856 66.6924 28.4619 66.2035 28.1849C65.7147 27.9024 65.0683 27.7612 64.2644 27.7612H62.9444V26.0583H64.2481C64.9977 26.0583 65.5843 25.9116 66.008 25.6183C66.4371 25.3195 66.6517 24.8986 66.6517 24.3554C66.6517 23.8665 66.448 23.4727 66.0406 23.1739C65.6332 22.8698 65.1009 22.7177 64.4436 22.7177C63.7701 22.7177 63.1698 22.8263 62.6429 23.0436C62.1215 23.2609 61.6326 23.5868 61.1763 24.0213L60.0764 22.6851C60.6793 22.1093 61.3366 21.672 62.0481 21.3733C62.7597 21.0691 63.6044 20.917 64.5821 20.917C65.788 20.917 66.7739 21.213 67.5398 21.8051C68.3057 22.3918 68.6886 23.1414 68.6886 24.0539C68.6886 25.3141 68.0259 26.2212 66.7006 26.7753C67.3958 26.9871 67.9499 27.3266 68.3627 27.7938C68.7755 28.2609 68.982 28.8557 68.982 29.5781C68.982 30.5613 68.5881 31.3788 67.8005 32.0307C67.0129 32.677 65.9781 33.0002 64.6962 33.0002C63.5935 33.0002 62.6429 32.8427 61.8444 32.5277C61.0514 32.2126 60.3181 31.7292 59.6445 31.0774Z" fill="#FF4B5F" />
	<path d="M47.9531 32.7963V21.1123H49.9738V29.6431L55.881 21.1123H57.8039V32.7963H55.7832V24.29L49.8923 32.7963H47.9531Z" fill="#FF4B5F" />
	<path d="M34 32.7474L34.2037 31.0608C34.3992 31.126 34.622 31.1586 34.8718 31.1586C35.0619 31.1586 35.2276 31.1396 35.3688 31.1016C35.5155 31.0581 35.6703 30.9739 35.8333 30.849C36.0017 30.7186 36.1456 30.5421 36.2651 30.3194C36.39 30.0912 36.5095 29.7843 36.6236 29.3987C36.7431 29.0076 36.8382 28.5459 36.9088 28.0135C36.9848 27.4758 37.0446 26.8212 37.088 26.0499C37.1315 25.2731 37.1532 24.3959 37.1532 23.4181V21.1123H45.1625V32.7963H43.1093V22.97H39.0761V24.0211C39.0761 25.4823 39.0218 26.7397 38.9131 27.7935C38.8045 28.8473 38.6524 29.7056 38.4569 30.3683C38.2668 31.0255 38.0142 31.547 37.6991 31.9326C37.3841 32.3129 37.0473 32.5736 36.6888 32.7148C36.3357 32.8561 35.912 32.9267 35.4177 32.9267C34.9397 32.9267 34.4671 32.8669 34 32.7474Z" fill="#FF4B5F" />
	<path d="M40.4569 4C42.6117 4 44.3727 4.93548 45.1083 5.62979L43.8674 7.12072C43.2656 6.59451 41.9355 5.86366 40.4346 5.86366C37.73 5.86366 36.0359 7.69808 36.0359 10.2049C36.0359 12.7117 37.6408 14.5461 40.4643 14.5461C42.099 14.5461 43.5182 13.6983 44.1349 13.1064L45.3089 14.6484C44.5659 15.4085 42.7232 16.4098 40.4495 16.4098C36.4669 16.4098 34 13.7787 34 10.2049C34 6.63105 36.5337 4 40.4495 4H40.4569Z" fill="#003790" />
	<path d="M53.1135 4C56.7989 4 59.4886 6.63105 59.4886 10.2049C59.4886 13.7787 56.7989 16.4098 53.1135 16.4098C49.428 16.4098 46.7383 13.7787 46.7383 10.2049C46.7383 6.63105 49.428 4 53.1135 4ZM53.1135 14.5461C55.61 14.5461 57.4602 12.6971 57.4602 10.2049C57.4602 7.7127 55.6175 5.86366 53.1135 5.86366C50.6095 5.86366 48.7667 7.7127 48.7667 10.2049C48.7667 12.6971 50.6095 14.5461 53.1135 14.5461Z" fill="#003790" />
	<path d="M72.1545 12.6972C72.1545 14.4439 71.0176 16.1395 68.0678 16.1395H61.6406V4.27051H67.6889C70.1334 4.27051 71.5526 5.76144 71.5526 7.44238C71.5526 8.39248 71.1068 9.25488 70.0368 9.94919C71.1217 10.3073 72.1545 11.0674 72.1545 12.6972ZM63.6245 6.13417V9.28412L67.4511 9.2695C68.8108 9.2695 69.5167 8.52404 69.5167 7.63971C69.5167 6.82847 68.9149 6.13417 67.7037 6.13417H63.6171H63.6245ZM68.1941 14.2685C69.591 14.2685 70.126 13.5084 70.126 12.6752C70.126 11.7763 69.487 11.0455 68.2313 11.0455H63.6319V14.2685H68.2016H68.1941Z" fill="#003790" />
	<path d="M80.0838 10.0223L85.4262 16.1395H82.7884L78.3228 10.9504H76.0269V16.1395H74.043V4.27051H76.0269V9.16718H78.3228L82.6844 4.27051H85.3221L80.0838 10.015V10.0223Z" fill="#003790" />
	<path d="M91.5392 4C95.2247 4 97.9144 6.63105 97.9144 10.2049C97.9144 13.7787 95.2247 16.4098 91.5392 16.4098C87.8538 16.4098 85.1641 13.7787 85.1641 10.2049C85.1641 6.63105 87.8538 4 91.5392 4ZM91.5392 14.5461C94.0358 14.5461 95.886 12.6971 95.886 10.2049C95.886 7.7127 94.0433 5.86366 91.5392 5.86366C89.0352 5.86366 87.1925 7.7127 87.1925 10.2049C87.1925 12.6971 89.0352 14.5461 91.5392 14.5461Z" fill="#003790" />
	<path d="M111.26 4.27051H113.17V16.1395H111.186V7.32545L107.218 12.5291H106.014L102.046 7.32545V16.1395H100.062V4.27051H101.972L106.609 10.3585L111.245 4.27051H111.26Z" fill="#003790" />
	<path d="M122.256 9.12333C124.909 9.12333 126.358 10.6508 126.358 12.6168C126.358 14.5828 124.909 16.1395 122.39 16.1395H115.844V4.27051H125.236V6.13417H117.828V9.11602H122.256V9.12333ZM122.308 14.2758C123.69 14.2758 124.307 13.5303 124.307 12.6314C124.307 11.7325 123.683 10.987 122.308 10.987H117.828V14.2758H122.308Z" fill="#003790" />
	<path d="M137.37 16.1395L136.063 13.1722H130.356L129.049 16.1395H126.879L132.117 4.27051H134.309L139.548 16.1395H137.378H137.37ZM131.129 11.389H135.283L133.217 6.66038L131.129 11.389Z" fill="#003790" />
	<path d="M149.973 4.27051H151.957V16.1395H149.973V11.0528H142.996V16.1395H141.012V4.27051H142.996V9.18911H149.973V4.27051Z" fill="#003790" />
	<path d="M160.658 10.0223L166 16.1395H163.363L158.897 10.9504H156.601V16.1395H154.617V4.27051H156.601V9.16718H158.897L163.259 4.27051H165.896L160.658 10.015V10.0223Z" fill="#003790" />
</svg>
