<svg id="Layer_1" xmlns="http://www.w3.org/2000/svg" viewBox="0 0 553.83 104.6">
  <defs>
    <style type="text/css">
      .cls-1 {
        fill: #005b95;
      }

      .cls-2 {
        fill: #f56920;
      }
    </style>
  </defs>
  <title>europlan_logo </title>
  <g>
    <g>
      <path class="cls-1" d="M81.89,112.71q-11.94,0-18.78-5.19c-9.1-6.9-8-21.92-4.21-31.42C64.26,62.5,77.12,56.23,91.19,56.23c10.06,0,24.63,2.46,24.63,15.43,0,16.88-18,19-31,19a90.2,90.2,0,0,1-10.05-.52c-1.32,8.2,3.94,9.26,10.93,9.36A52.58,52.58,0,0,0,100.86,97c1.36-.37,2.21-.59,3,.72l3.9,8.13c.59,1,.13,1.8-1.38,2.47-7.42,3.29-16.59,4.42-24.5,4.42m69-45.05c-5.1,0-9,2.2-9.93,7.41l-4.65,25.1a67.31,67.31,0,0,0,9.55.82c5.14,0,13.69-1.41,13.69-8.23,0-5.5-7.89-5.14-11.68-5.14-1.59,0-2.85-.16-2.51-2.06l.88-4.94c.39-2.17,2.12-2.31,4-2.47,3.2-.26,8.54-1.46,8.54-5.66C158.79,68.63,153.77,67.65,150.88,67.65Zm-28,7.3C125.35,60.48,139,56,152,56c8.36,0,23.85,2.1,24.25,13.37.19,5.43-3.79,9.91-8.67,11.73v.51c5.63,1.6,10.3,5,10.3,11.31,0,15.74-20.35,19.75-32.42,19.75-8.54,0-18.17-.69-26.13-4-1.54-.64-2-1.46-1.76-3.08ZM195,130.81c-.29,1.7-1.37,1.75-2.89,1.75H179.44c-1.39,0-2.55-.05-2.26-1.75l11.56-67.07a4.17,4.17,0,0,1,3-3.19c8.37-3.15,17.87-4.12,26.76-4.12,15.41,0,27.41,5.75,27,22.84C245,100,232.17,112.5,211.86,112.5a68.9,68.9,0,0,1-13.44-1.23ZM214.87,69.3a39,39,0,0,0-9.42,1.13l-4.78,28.08a40.49,40.49,0,0,0,9.8,1.13c11.4,0,16.84-8.86,16.84-19.44C227.31,72.24,222.29,69.3,214.87,69.3Zm69.36-.41c-7.69,0-12.58,5.37-14.45,12.45-2.24,8.49-1.82,18.72,9.3,18.72s15.33-11.38,15.33-20.88C294.41,72.54,290.91,68.89,284.23,68.89Zm1.63-12.65c14.76,0,27,6.25,27,22.53,0,22.22-15,34.16-35.81,33.94-14.16-.15-26.89-5.26-26.89-21.29a40.11,40.11,0,0,1,2.64-15C258.39,62.5,271.7,56.23,285.87,56.23ZM347.7,68.58a50.31,50.31,0,0,0-8.17.51l-7,40.63c-.3,1.75-1.27,1.85-2.89,1.85H317.17c-1.39,0-2.69-.14-2.39-1.85l7.67-44.13c.88-5.07,3.95-7.52,8.92-8.33a112.58,112.58,0,0,1,17.59-1c10.84,0,26,1.36,28.9,14.25a32.94,32.94,0,0,1-.13,12.4l-4.52,26.85c-.3,1.76-1.27,1.85-2.89,1.85H357.75c-1.4,0-2.68-.14-2.39-1.85L360.14,82c.55-3.17.93-7.35-1.25-10C356.36,68.82,351.34,68.58,347.7,68.58Zm138.45.31c-7.48,0-12.71,4.73-15.14,11.57-3.91,11-2.11,19.92,11.25,19.7a37.62,37.62,0,0,0,8.67-1.23c1.49-9.75,3.06-19.57,5.15-29.21a55.55,55.55,0,0,0-7.79-.77C487.45,68.9,486.73,68.89,486.15,68.89ZM487,56.34a120.48,120.48,0,0,1,25.38,2.78c2.11.46,2.77,1.21,2.39,3.29-2.76,14.88-5.35,29.85-7.41,44.85a2.3,2.3,0,0,1-1.88,2,96.69,96.69,0,0,1-26.64,3.5c-15,0-27.76-4.68-27.76-21A43.83,43.83,0,0,1,453.42,77C458.62,62.32,472.29,56.34,487,56.34Zm-46,51.81-.25,1.48v.08h0c-.32,1.7-1.24,1.87-2.87,1.87H425.45c-1.84,0-2.5-.67-2.26-2.06L430,69.71H415.15c-1.69,7.19-3.25,14.44-5.4,21.5-4,13.07-11.69,19.27-24.75,22.42-1.3.31-3,.37-3.64-1.23L378.46,105c-.74-1.9.15-2.65,1.88-3.29,7.64-2.83,11.07-6.07,13.88-14.45,2.29-6.82,3.57-15.56,5.59-23.61,1.19-4.73,4-6.07,8.67-6.07h34c4.63,0,7,1.37,6.16,6.25v0l0,.12Zm92.37,1.37c-.32,1.91-1.21,2.06-3,2.06H518.08c-1.84,0-2.62-.68-2.39-2.06l8.67-50c.23-1.31,1.21-2,2.89-2h12.31c1.69,0,2.7,0,2.39,2l-2.89,17.59h22.62l3-17.59c.22-1.31,1.26-2,3-2H580c1.67,0,2.72,0,2.39,2l-8.67,50c-.33,1.9-1.05,2.06-2.89,2.06H558.54c-1.84,0-2.62-.68-2.39-2.06l3.52-20.67H536.93ZM90.18,68.68c-7,0-12.25,4.14-13.7,11a72.12,72.12,0,0,0,13.44-.15c3.66-.42,8.29-1.37,8.29-5.91C98.22,69.37,93.42,68.68,90.18,68.68Z" transform="translate(-56.11 -56.03)"/>
      <path class="cls-2" d="M580.15,129.75c-124.76-23.8-243.22-10-369.69,29.06-3.55,1.1-4,2.47.58,1.49,116.65-25.12,243.31-33.46,368.66-28,2.53.11,6.19.19,6.18-.44s-1.15-1.26-5.73-2.13" transform="translate(-56.11 -56.03)"/>
    </g>
    <g>
      <path class="cls-1" d="M601,58.8a7.92,7.92,0,1,1-7.92,7.92A7.93,7.93,0,0,1,601,58.8m0-1a8.92,8.92,0,1,0,8.92,8.92A8.92,8.92,0,0,0,601,57.81Z" transform="translate(-56.11 -56.03)"/>
      <path class="cls-1" d="M602.52,67a1.62,1.62,0,0,1,.84.56,3,3,0,0,1,.41.89l.82,3a.19.19,0,0,1,0,.14s-.07.07-.15.07h-.77l-.13,0s-.08-.06-.1-.13l-.75-2.71a2.37,2.37,0,0,0-.32-.71,1.55,1.55,0,0,0-.44-.43,1.64,1.64,0,0,0-.56-.22,3.2,3.2,0,0,0-.66-.06h-2.19v4.1a.19.19,0,0,1,0,.15.24.24,0,0,1-.15,0h-.71a.25.25,0,0,1-.15,0,.19.19,0,0,1,0-.15v-9a.74.74,0,0,1,.14-.49.64.64,0,0,1,.51-.17h3.17a3.36,3.36,0,0,1,1.2.2,2.64,2.64,0,0,1,.91.57,2.5,2.5,0,0,1,.58.86,2.88,2.88,0,0,1,.2,1.08,2.71,2.71,0,0,1-.42,1.49,2.28,2.28,0,0,1-1.21.93Zm.53-2.41a2.15,2.15,0,0,0-.1-.66,1.52,1.52,0,0,0-.33-.57A1.68,1.68,0,0,0,602,63a2.3,2.3,0,0,0-.88-.15h-2.58v3.56h2.5a2,2,0,0,0,1.51-.5A1.8,1.8,0,0,0,603.05,64.59Z" transform="translate(-56.11 -56.03)"/>
    </g>
  </g>
</svg>
