<svg width="100" height="42" fill="none" xmlns="http://www.w3.org/2000/svg"><path d="M88.127 22.676c5.287 0 10.482-3.203 10.482-11.014S93.414.652 88.127.652c-5.287 0-10.483 3.199-10.483 11.01 0 7.81 5.196 11.014 10.483 11.014zm-5.898-11.013c0-7.288 4.278-7.934 5.898-7.934s5.898.646 5.898 7.934-4.278 7.933-5.898 7.933-5.898-.646-5.898-7.933zM70.994 22.677c1.711 0 3.636-.283 5.531-.928l-.274-3.66c-1.07.493-2.567.954-4.462.954-3.852 0-7.335-2.122-7.335-7.319 0-4.397 2.842-7.442 7.64-7.442 1.62 0 2.995.308 4.249.8l.183-3.69C74.906.87 73.471.654 71.79.654c-6.723 0-11.918 3.721-11.918 11.133 0 7.84 5.805 10.89 11.123 10.89zm-37.412-8.339h2.811c5.447-.014 7.396-3.88 7.396-6.703 0-1.304-.427-6.344-7.396-6.713-.265-.015-.54-.023-.825-.023h-6.326v21.527h4.34v-8.087zm0-10.055h1.986c.295 0 .569.02.825.058 1.93.286 2.812 1.596 2.812 3.17 0 1.447-.795 3.04-2.812 3.378a4.97 4.97 0 01-.825.066h-1.986V4.283zm12.09 18.143h12.774v-3.813h-8.434v-5.505h7.67V9.572h-7.67v-4.86h8.434V.9H45.672v21.527zm-26.599-6.671h4.113l-.17-1.438c-.322-2.728-1.184-4.936-2.54-6.67-1.23-1.57-2.847-2.728-4.819-3.509V0L14.23.17c-.94.113-1.818.291-2.635.532-1.541.453-2.868 1.133-3.993 2.025C6.04 3.964 4.889 5.591 4.113 7.575H0l.17 1.437c.321 2.727 1.184 4.936 2.54 6.67 1.23 1.57 2.846 2.727 4.818 3.508v4.139l1.43-.17c.94-.113 1.817-.29 2.635-.532 1.54-.454 2.867-1.134 3.992-2.026 1.56-1.235 2.711-2.863 3.488-4.846zm-5.067 2.827a8.79 8.79 0 01-2.414 1.34c-.472.175-.974.323-1.507.443v-8.522H7.528v4.539c-1.125-.58-2.066-1.338-2.81-2.288-.826-1.055-1.422-2.364-1.771-3.945h8.48V7.575H6.905c.575-1.132 1.329-2.08 2.273-2.828a8.82 8.82 0 012.414-1.34c.472-.176.974-.323 1.507-.443v8.638h2.557V6.948c1.126.579 2.067 1.337 2.81 2.288.826 1.055 1.423 2.364 1.771 3.945h-8.398v2.574h4.44c-.575 1.132-1.328 2.079-2.273 2.827zm78.037 14.386v8.892h2.621v-7.09h4.337v-1.802h-6.958zm-21.24 6.266h-.04l.078-1.597v-4.67h-2.622v8.893h2.795l4.415-6.266h.058l-.078 1.665v4.601h2.622v-8.892h-2.93l-4.298 6.266zm-6.598-2.044v-.034c.481-.103 1.716-.532 1.716-1.99 0-1.065-.81-2.336-3.914-2.336-1.311 0-2.217.206-3.354.567l.038 1.7c1.099-.482 2.37-.584 2.873-.584 1.215 0 1.696.464 1.696.978 0 .36-.23.91-1.465.91h-1.35v1.63h1.37c1.368 0 1.869.465 1.869 1.082 0 .773-.79 1.202-1.87 1.202-.675 0-2.024-.138-3.43-.721l-.232 1.682a10.65 10.65 0 003.76.724c2.872 0 4.51-1.187 4.51-2.75 0-1.475-1.37-1.94-2.217-2.06zm-58.95-2.712H3.058v-2.507h5.899v-2.128H.32V41.86h4.934c3.856 0 4.8-2.231 4.8-3.502 0-1.545-.828-3.88-4.8-3.88zm-.144 5.482a5.082 5.082 0 01-.357.012H3.058v-3.605h1.696c.123 0 .242.004.357.012 1.304.086 2.053.67 2.053 1.79s-.75 1.704-2.053 1.791zM16.6 32.83l-.145.002c-2.616.06-4.79 1.767-4.79 4.581 0 2.933 2.083 4.387 4.79 4.568.193.012.39.02.588.02 1.195 0 2.429-.21 3.45-.553v-1.75a8.27 8.27 0 01-3.123.618 4.51 4.51 0 01-.915-.088c-1.341-.277-1.99-1.17-2.053-2.11h6.804v-.531c0-.791-.076-4.757-4.606-4.757zm-.145 3.692h-2.053c.019-1.167.887-2.078 2.043-2.078h.01c.962.004 2.09.589 2.053 2.078h-2.053zm70.682-.19h-4.202v-3.364h-2.623v8.892h2.623v-3.81h4.202v3.811h2.622v-8.892h-2.622v3.364zm-63.497.326c0 1.906.193 3.486-1.311 3.486a1.4 1.4 0 01-.463-.07l-.116 1.786c.385.123.694.14 1.118.14 2.641 0 3.104-.93 3.104-5.342v-1.974h3.084v7.176h2.622v-8.892H23.64v3.69zm11.943-2.901c0 2.85.288 6.283-1.832 6.283a4.74 4.74 0 01-.733-.086l-.116 1.905c.367.072.868.14 1.311.14 4.01 0 3.933-3.59 3.933-7.625v-2.403h3.566v9.888h2.738V29.843h-8.867v3.914zm13.828 5.477h-.038l.076-1.597v-4.67h-2.62v8.893h2.794l4.414-6.266h.058l-.076 1.665v4.601h2.62v-8.892H53.71l-4.299 6.266z" fill="#007A3C"/></svg>