<svg width="512" height="95" viewBox="0 0 512 95" fill="none" xmlns="http://www.w3.org/2000/svg">
<path d="M511.609 92.7081H491.949V85.95L491.334 85.6428C486.727 89.6362 480.122 94.8584 467.835 94.8584C446.793 94.8584 435.734 79.1919 435.734 54.3099V15.9118H455.394V50.6237C455.394 68.7476 461.998 75.8129 473.671 75.8129C485.344 75.8129 491.949 68.7476 491.949 50.6237V15.9118H511.609V92.7081Z" fill="black"/>
<path d="M393.665 22.9771C398.58 18.5229 407.796 15.9118 416.704 15.9118H426.534V35.2645H416.243C400.884 35.2645 393.051 44.1728 393.051 61.3752V92.7081H373.391V15.9118H393.051V22.6699L393.665 22.9771Z" fill="black"/>
<path d="M337.315 70.4381H359.893V92.709H337.315V70.4381Z" fill="black"/>
<path d="M290.499 94.8586C266.999 94.8586 249.029 77.5027 249.029 54.3102C249.029 31.1177 266.999 13.7618 290.499 13.7618C313.999 13.7618 331.969 31.1177 331.969 54.3102C331.969 77.5027 313.999 94.8586 290.499 94.8586ZM268.842 54.3102C268.842 65.676 278.058 75.9667 290.499 75.9667C302.94 75.9667 312.156 65.676 312.156 54.3102C312.156 42.9444 302.94 32.6537 290.499 32.6537C278.058 32.6537 268.842 42.9444 268.842 54.3102Z" fill="black"/>
<path d="M241.391 73.5098V92.7088H222.653C201.764 92.7088 187.941 78.2712 187.941 57.8433V0.246155H207.601V15.9126H241.391V34.8045H207.601V51.8532C207.601 66.4445 214.973 73.5098 229.564 73.5098H241.391Z" fill="black"/>
<path d="M173.405 92.7081H153.745V85.95L153.131 85.6428C148.523 89.6362 141.919 94.8584 129.631 94.8584C108.589 94.8584 97.5303 79.1919 97.5303 54.3099V15.9118H117.19V50.6237C117.19 68.7476 123.795 75.8129 135.468 75.8129C147.141 75.8129 153.745 68.7476 153.745 50.6237V15.9118H173.405V92.7081Z" fill="black"/>
<path d="M20.2742 54.3102C20.2742 65.676 29.6434 76.2739 41.9308 76.2739C54.2182 76.2739 63.5873 65.676 63.5873 54.3102C63.5873 42.9444 54.2182 32.3465 41.9308 32.3465C29.6434 32.3465 20.2742 42.9444 20.2742 54.3102ZM82.94 15.9121V92.7083H63.5873V85.9502L62.9729 85.6431C58.3652 89.7901 50.9927 94.8586 38.2445 94.8586C15.82 94.8586 0 76.8883 0 54.3102C0 31.7321 15.82 13.7618 38.2445 13.7618C50.9927 13.7618 58.3652 18.8303 62.9729 22.9773L63.5873 22.6701V15.9121H82.94Z" fill="black"/>
</svg>
