<?xml version="1.0" encoding="UTF-8"?> <svg xmlns="http://www.w3.org/2000/svg" width="889" height="218" viewBox="0 0 889 218" fill="none"> <path d="M72.6804 217.411H0.896362V180.039H8.4017V209.936H72.6804V217.411Z" fill="white"></path> <path d="M162.78 217.411H91.0253V179.979H162.78V187.452H98.6199V195.016H162.78V202.492H98.6199V209.936H162.78V217.411Z" fill="white"></path> <path d="M254.385 179.979H264.868L228.064 217.411H217.869L181.124 180.039H191.48L222.967 210.143L254.385 179.979Z" fill="white"></path> <path d="M354.788 217.411H283.034V179.979H354.788V187.452H290.628V195.016H354.788V202.492H290.628V209.936H354.788V217.411Z" fill="white"></path> <path d="M444.857 217.411H373.073V180.039H380.577V209.936H444.857V217.411Z" fill="white"></path> <path d="M530.293 197.857H587.009V190.421C587.009 188.441 586.012 187.452 584.018 187.452H533.282C531.289 187.452 530.293 188.473 530.293 190.511V197.857ZM594.573 217.351H587.009V205.331H530.293V217.351H522.849V189.247C522.849 183.068 525.848 179.979 531.848 179.979H585.544C591.562 179.979 594.573 183.099 594.573 189.336V217.351Z" fill="white"></path> <path d="M685.969 179.979H696.451L659.647 217.411H649.451L612.709 180.039H623.062L654.55 210.143L685.969 179.979Z" fill="white"></path> <path d="M760.988 217.411H752.019V187.572H714.587V179.979H798.3V187.452H760.988V217.411Z" fill="white"></path> <path d="M880.866 206.983V190.673C880.866 188.586 879.87 187.542 877.878 187.542H827.138C825.146 187.542 824.15 188.515 824.15 190.463V206.894C824.15 208.922 825.146 209.935 827.138 209.935H877.938C879.89 209.935 880.866 208.953 880.866 206.983ZM825.557 217.41C819.575 217.41 816.586 214.41 816.586 208.41V189.037C816.586 183.058 819.546 180.067 825.466 180.067H879.251C885.331 180.067 888.37 183.126 888.37 189.246V208.59C888.37 214.41 885.43 217.319 879.551 217.319L825.557 217.41Z" fill="white"></path> <path d="M888.436 122.77L880.613 84.4315C878.603 74.5822 872.008 66.2835 862.863 62.1062C857.324 59.5768 852.029 57.2155 850.741 56.8315C813.616 45.7488 776.205 43.5475 776.205 44.6488C776.205 60.0915 736.277 96.6942 683.78 115.068C631.284 133.441 583.008 135.575 564.633 135.575C564.633 135.575 618.861 143.675 671.677 130.471C712.224 120.335 745.397 126.071 745.397 126.071C745.397 126.071 750.581 107.808 758.601 94.1608C783.753 51.3622 823.519 58.9515 852.127 69.9555C852.892 70.2488 853.728 70.6435 854.597 71.0995C861.141 74.5382 866.387 80.0222 869.776 86.5928L888.436 122.77Z" fill="white"></path> <path d="M271.965 71.268C271.965 71.268 352.699 18.012 447.214 5.03735C546.837 -8.63864 616.635 8.33202 681.579 22.6413C746.497 36.9453 754.199 39.1467 754.199 39.1467C754.199 39.1467 740.026 73.1893 683.171 94.54C626.318 115.889 544.573 113.967 486.826 113.967C429.079 113.967 326.857 104.812 308.577 102.964C232.297 95.2507 164.43 105.461 134.729 106.265C126.17 106.496 110.826 108.733 102.821 111.767L0.923462 140.243C0.923462 140.243 18.0808 119.801 87.4155 88.66C98.9781 83.4667 133.154 80.4867 145.731 82.0587C178.191 86.116 234.362 87.976 264.09 92.2667C323.898 100.899 488.827 108.851 575.95 104.064C676.078 98.5627 700.285 51.2494 700.285 51.2494C700.285 51.2494 550.643 12.74 434.011 19.3414C339.087 24.7134 300.874 74.356 300.874 74.356L271.965 71.268Z" fill="white"></path> </svg>